<?xml version="1.0" encoding="UTF-8" standalone="no"?>
<svg
   width="1024pt"
   height="1024pt"
   version="1.1"
   viewBox="0 0 1024 1024"
   id="svg196"
   sodipodi:docname="carpe.svg"
   inkscape:version="1.2 (dc2aeda, 2022-05-15)"
   inkscape:export-filename="carpe.png"
   inkscape:export-xdpi="96"
   inkscape:export-ydpi="96"
   xmlns:inkscape="http://www.inkscape.org/namespaces/inkscape"
   xmlns:sodipodi="http://sodipodi.sourceforge.net/DTD/sodipodi-0.dtd"
   xmlns="http://www.w3.org/2000/svg"
   xmlns:svg="http://www.w3.org/2000/svg">
  <defs
     id="defs200" />
  <sodipodi:namedview
     id="namedview198"
     pagecolor="#ffffff"
     bordercolor="#000000"
     borderopacity="0.25"
     inkscape:showpageshadow="2"
     inkscape:pageopacity="0.0"
     inkscape:pagecheckerboard="0"
     inkscape:deskcolor="#d1d1d1"
     inkscape:document-units="pt"
     showgrid="false"
     inkscape:zoom="0.58520508"
     inkscape:cx="682.66667"
     inkscape:cy="682.66667"
     inkscape:current-layer="svg196" />
  <path
     d="m 257.5249,859.62 c -0.26562,-3.375 0.53906,3.4414 0,0 z"
     id="path184" />
  <path
     d="m 249.6349,827.32 c 0.58594,1.1172 -0.51563,-1.1289 0,0 z"
     id="path188" />
  <path
     d="m 699.5723,267.11395 c -17.29556,0 -33.03425,6.783 -44.69202,17.82396 -20.08512,-38.17301 -76.01911,-51.88214 -111.23509,-6.85031 -15.09746,-29.47467 -62.24502,-38.91387 -93.39775,-9.43215 -10.89402,-20.70165 -32.62321,-34.85501 -57.61255,-34.85501 -35.97126,0 -65.07031,29.09984 -65.07031,65.0703 v 88.46332 c -38.55497,5.72599 -68.21249,39.02474 -68.21249,79.13347 v 66.89097 c 0,38.34969 13.18435,75.96131 37.14544,105.91721 20.0266,25.01802 31.06705,56.46693 31.06705,88.52996 v 44.92618 c -0.57717,23.79748 402.83428,22.77747 402.99207,0 v -85.80467 c 0,-17.35418 5.07992,-34.15058 14.71115,-48.59714 12.6852,-19.02751 19.38011,-41.16864 19.38011,-64.04265 V 332.18124 c 0,-35.88256 -29.18775,-65.0703 -65.07041,-65.0703 z m -102.30145,10.77663 c 20.52564,0 37.23345,16.70842 37.23345,37.23336 V 451.5459 c 0,20.52574 -16.70851,37.23345 -37.23345,37.23345 -20.52564,0 -37.23344,-16.7085 -37.23344,-37.23345 V 315.12394 c -0.0301,-20.52565 16.67914,-37.23336 37.23344,-37.23336 z m -102.33152,0.8364 c 20.52566,0 37.23335,16.7084 37.23335,37.23334 v 82.29171 c -10.57067,-7.39961 -23.40322,-11.74556 -37.23335,-11.74556 l -37.23343,-0.0301 v -70.51979 c 0,-20.61365 16.64907,-37.23336 37.23343,-37.23336 z M 392.63789,261.66666 c 20.52563,0 37.23334,16.70852 37.23334,37.23344 v 87.57631 H 355.40444 V 298.9001 c 0,-20.58436 16.6198,-37.23344 37.23345,-37.23344 z m 329.46494,361.22458 c -12.68522,19.02752 -19.38012,41.16875 -19.38012,64.04276 v 57.64181 c -7.29201,21.70608 -337.47227,16.61115 -347.31676,0.0301 -1.08638,-7.57582 7.72246,-66.56842 -37.14534,-122.68054 -20.02661,-25.01791 -31.06716,-56.46683 -31.06716,-88.52995 v -66.89098 c 0,-28.74724 23.40333,-52.15046 52.15057,-52.15046 l 155.59832,-0.0301 c 20.52564,0 37.23334,16.70851 37.23334,37.23344 0,20.52564 -16.7084,37.23345 -37.23334,37.23345 H 392.6409 v 27.83687 h 102.30144 c 20.73092,0 39.23072,-9.77838 51.15218,-24.93002 11.92156,15.15164 30.42137,24.93002 51.15227,24.93002 20.73092,0 39.23072,-9.77838 51.15217,-24.93002 21.58267,27.45498 60.3428,32.82908 88.38714,13.18435 v 69.41684 c 0.0301,17.35409 -5.05066,34.1505 -14.68177,48.59703 z m 14.71114,-171.33922 c 0,20.52564 -16.70852,37.23335 -37.23346,37.23335 -20.52493,0 -37.23334,-16.70851 -37.23334,-37.23335 V 332.18645 c 0,-20.52563 16.70841,-37.23335 37.23334,-37.23335 20.52494,0 37.23346,16.70842 37.23346,37.23335 z"
     id="path182"
     style="fill:#1a1a1a;stroke:#999999;stroke-width:15;stroke-dasharray:none;stroke-opacity:1"
     sodipodi:nodetypes="ccccsscsscsccssssccssssscscscccsccssccsscscccssccssccscscccccsssssss" />
</svg>
